# Blender 5.1.0
# www.blender.org
mtllib Dynamite A.mtl
o Dynamite_A
v 0.019745 -0.251818 -0.000173
v 0.019285 0.080202 -0.000169
v 0.006266 -0.251818 0.018725
v 0.006120 0.080202 0.018289
v -0.015872 -0.251818 0.011746
v -0.015503 0.080202 0.011472
v -0.016075 -0.251818 -0.011466
v -0.015701 0.080202 -0.011199
v 0.005937 -0.251818 -0.018832
v 0.005799 0.080202 -0.018394
v 0.009127 0.080202 0.027275
v 0.028760 0.080202 -0.000252
v -0.023119 0.080202 0.017108
v -0.023415 0.080202 -0.016701
v 0.008648 0.080202 -0.027430
v 0.001403 0.076178 0.004192
v 0.004421 0.076178 -0.000039
v -0.003554 0.076178 0.002630
v -0.003599 0.076178 -0.002567
v 0.001329 0.076178 -0.004216
v 0.028760 -0.251818 -0.000252
v 0.009127 -0.251818 0.027275
v -0.023119 -0.251818 0.017108
v -0.023415 -0.251818 -0.016701
v 0.008648 -0.251818 -0.027430
v -0.000000 -0.244180 0.000000
v 0.019745 -0.244180 -0.000173
v 0.006266 -0.244180 0.018725
v -0.015872 -0.244180 0.011746
v -0.016075 -0.244180 -0.011466
v 0.005937 -0.244180 -0.018832
v 0.006120 0.076178 0.018289
v 0.019285 0.076178 -0.000169
v -0.015503 0.076178 0.011472
v -0.015701 0.076178 -0.011199
v 0.005799 0.076178 -0.018394
v 0.001403 0.230024 0.004192
v 0.004421 0.230024 -0.000039
v -0.003554 0.230024 0.002630
v -0.003599 0.230024 -0.002567
v 0.001329 0.230024 -0.004216
vn 0.8141 -0.0000 0.5807
vn -0.3007 -0.0000 0.9537
vn -1.0000 -0.0000 0.0088
vn -0.3173 -0.0000 -0.9483
vn 0.8038 -0.0000 -0.5948
vn 0.3173 -0.0000 0.9483
vn -0.8038 -0.0000 0.5948
vn -0.0000 1.0000 -0.0000
vn -0.8141 -0.0000 -0.5807
vn 0.3007 -0.0000 -0.9537
vn 1.0000 -0.0000 -0.0088
vn -0.0000 -1.0000 -0.0000
vt 0.356959 0.001428
vt 0.448292 0.898313
vt 0.356959 0.898313
vt 0.168582 0.001428
vt 0.259916 0.898313
vt 0.168582 0.898313
vt 0.262771 0.001428
vt 0.354104 0.898313
vt 0.262771 0.898313
vt 0.001428 0.001428
vt 0.083577 0.998572
vt 0.001428 0.998572
vt 0.083577 0.001428
vt 0.165727 0.998572
vt 0.451147 0.565357
vt 0.474085 0.508959
vt 0.474085 0.565357
vt 0.586127 0.462095
vt 0.574040 0.407008
vt 0.586127 0.407008
vt 0.586127 0.517181
vt 0.574040 0.462095
vt 0.570987 0.195331
vt 0.591694 0.271619
vt 0.570987 0.256575
vt 0.512741 0.176405
vt 0.591694 0.180286
vt 0.451147 0.225953
vt 0.504831 0.152063
vt 0.512741 0.275500
vt 0.476742 0.225953
vt 0.504831 0.299843
vt 0.531401 0.508959
vt 0.543488 0.564045
vt 0.531401 0.564045
vt 0.513604 0.570203
vt 0.502732 0.508959
vt 0.513604 0.508959
vt 0.528546 0.564045
vt 0.516459 0.508959
vt 0.528546 0.508959
vt 0.619804 0.463468
vt 0.607177 0.001428
vt 0.619804 0.001428
vt 0.571991 0.043966
vt 0.504831 0.001428
vt 0.591694 0.029651
vt 0.591694 0.120984
vt 0.571991 0.106669
vt 0.504831 0.149208
vt 0.512357 0.126045
vt 0.475501 0.075318
vt 0.451147 0.075318
vt 0.512357 0.024590
vt 0.550492 0.302698
vt 0.571124 0.365401
vt 0.550492 0.365401
vt 0.548247 0.463407
vt 0.571185 0.519805
vt 0.548247 0.519805
vt 0.476940 0.508959
vt 0.499877 0.565357
vt 0.476940 0.565357
vt 0.548247 0.407008
vt 0.571185 0.463407
vt 0.504485 0.353426
vt 0.488003 0.404153
vt 0.451147 0.353426
vt 0.488003 0.302698
vt 0.547637 0.322074
vt 0.547637 0.384777
vt 0.491302 0.456556
vt 0.487145 0.506104
vt 0.451147 0.456556
vt 0.512906 0.463575
vt 0.499554 0.467914
vt 0.545392 0.425934
vt 0.545392 0.487178
vt 0.512906 0.449537
vt 0.487145 0.407008
vt 0.499554 0.445198
vt 0.556499 0.545376
vt 0.556499 0.522660
vt 0.569851 0.526999
vt 0.639553 0.417011
vt 0.653592 0.001428
vt 0.653592 0.417011
vt 0.656447 0.417011
vt 0.670486 0.001428
vt 0.670486 0.417011
vt 0.594549 0.463468
vt 0.607177 0.463468
vt 0.622659 0.417012
vt 0.636698 0.001428
vt 0.636698 0.417012
vt 0.448292 0.001428
vt 0.259916 0.001428
vt 0.354104 0.001428
vt 0.165727 0.001428
vt 0.451147 0.508959
vt 0.574040 0.517181
vt 0.543488 0.508959
vt 0.502732 0.570203
vt 0.516459 0.564045
vt 0.571124 0.302698
vt 0.499877 0.508959
vt 0.571185 0.407008
vt 0.569851 0.541038
vt 0.548247 0.534018
vt 0.639553 0.001428
vt 0.656447 0.001428
vt 0.594549 0.001428
vt 0.622659 0.001428
s 1
usemtl Red
f 12/1/1 22/2/1 21/3/1
f 11/4/2 23/5/2 22/6/2
f 13/7/3 24/8/3 23/9/3
f 14/10/4 25/11/4 24/12/4
f 15/13/5 21/14/5 25/11/5
f 7/15/6 31/16/6 30/17/6
f 10/18/7 33/19/7 2/20/7
f 8/21/6 36/22/6 10/18/6
f 4/23/8 12/24/8 2/25/8
f 6/26/8 11/27/8 4/23/8
f 6/26/8 14/28/8 13/29/8
f 10/30/8 14/28/8 8/31/8
f 2/25/8 15/32/8 10/30/8
f 2/33/9 32/34/9 4/35/9
f 4/36/10 34/37/10 6/38/10
f 6/39/11 35/40/11 8/41/11
f 3/45/12 21/46/12 22/47/12
f 3/45/12 23/48/12 5/49/12
f 5/49/12 24/50/12 7/51/12
f 9/52/12 24/50/12 25/53/12
f 9/52/12 21/46/12 1/54/12
f 5/55/10 28/56/10 3/57/10
f 1/58/7 31/59/7 9/60/7
f 7/61/11 29/62/11 5/63/11
f 3/64/9 27/65/9 1/58/9
f 26/66/12 27/67/12 28/68/12
f 26/66/12 28/68/12 29/69/12
f 26/66/12 29/69/12 30/70/12
f 26/66/12 30/70/12 31/71/12
f 26/66/12 31/71/12 27/67/12
f 17/72/8 32/73/8 33/74/8
f 18/75/8 32/73/8 16/76/8
f 18/75/8 35/77/8 34/78/8
f 19/79/8 36/80/8 35/77/8
f 17/72/8 36/80/8 20/81/8
f 12/1/1 11/96/1 22/2/1
f 11/4/2 13/97/2 23/5/2
f 13/7/3 14/98/3 24/8/3
f 14/10/4 15/13/4 25/11/4
f 15/13/5 12/99/5 21/14/5
f 7/15/6 9/100/6 31/16/6
f 10/18/7 36/22/7 33/19/7
f 8/21/6 35/101/6 36/22/6
f 4/23/8 11/27/8 12/24/8
f 6/26/8 13/29/8 11/27/8
f 6/26/8 8/31/8 14/28/8
f 10/30/8 15/32/8 14/28/8
f 2/25/8 12/24/8 15/32/8
f 2/33/9 33/102/9 32/34/9
f 4/36/10 32/103/10 34/37/10
f 6/39/11 34/104/11 35/40/11
f 3/45/12 1/54/12 21/46/12
f 3/45/12 22/47/12 23/48/12
f 5/49/12 23/48/12 24/50/12
f 9/52/12 7/51/12 24/50/12
f 9/52/12 25/53/12 21/46/12
f 5/55/10 29/105/10 28/56/10
f 1/58/7 27/65/7 31/59/7
f 7/61/11 30/106/11 29/62/11
f 3/64/9 28/107/9 27/65/9
f 17/72/8 16/76/8 32/73/8
f 18/75/8 34/78/8 32/73/8
f 18/75/8 19/79/8 35/77/8
f 19/79/8 20/81/8 36/80/8
f 17/72/8 33/74/8 36/80/8
usemtl Dark_Grey
f 17/42/5 41/43/5 38/44/5
f 38/82/8 40/83/8 39/84/8
f 18/85/3 40/86/3 19/87/3
f 17/88/1 37/89/1 16/90/1
f 19/91/4 41/43/4 20/92/4
f 16/93/2 39/94/2 18/95/2
f 17/42/5 20/92/5 41/43/5
f 39/84/8 37/108/8 38/82/8
f 38/82/8 41/109/8 40/83/8
f 18/85/3 39/110/3 40/86/3
f 17/88/1 38/111/1 37/89/1
f 19/91/4 40/112/4 41/43/4
f 16/93/2 37/113/2 39/94/2
